<svg width="24" height="24" viewBox="0 0 24 24" fill="none" xmlns="http://www.w3.org/2000/svg">
<path fill-rule="evenodd" clip-rule="evenodd" d="M6.8849 6.07542L6.54959 5.7401C6.21427 5.40477 5.6726 5.41337 5.34589 5.7401L5.33729 5.74868C5.00197 6.084 5.00197 6.62567 5.33729 6.9524L5.6726 7.28772C6.00792 7.62303 6.54099 7.62303 6.8763 7.28772L6.8849 7.27912C7.22022 6.9524 7.22022 6.40213 6.8849 6.07542ZM4.27114 11.5437H3.39416C2.92128 11.5437 2.54297 11.922 2.54297 12.3948V12.4035C2.54297 12.8763 2.92128 13.2547 3.39416 13.2547H4.26255C4.74402 13.2632 5.12234 12.8849 5.12234 12.412V12.4035C5.12234 11.922 4.74402 11.5437 4.27114 11.5437ZM12.0092 2.98877H12.0006C11.5192 2.98877 11.1409 3.36708 11.1409 3.83997V4.66535C11.1409 5.13823 11.5192 5.51655 11.992 5.51655H12.0006C12.4821 5.52515 12.8604 5.14683 12.8604 4.67395V3.83997C12.8604 3.36708 12.4821 2.98877 12.0092 2.98877ZM18.664 5.74868C18.3287 5.41337 17.787 5.41337 17.4517 5.7401L17.1164 6.07542C16.7811 6.41073 16.7811 6.9524 17.1164 7.27912L17.125 7.28772C17.4603 7.62303 18.002 7.62303 18.3287 7.28772L18.664 6.9524C18.9992 6.61708 18.9992 6.084 18.664 5.74868ZM17.1078 18.7315L17.4431 19.0668C17.7784 19.4022 18.3201 19.4022 18.6554 19.0668C18.9907 18.7315 18.9907 18.1898 18.6554 17.8545L18.3201 17.5192C17.9848 17.1839 17.4431 17.1925 17.1164 17.5192C16.7725 17.8631 16.7725 18.3962 17.1078 18.7315ZM18.8789 12.3948V12.4035C18.8789 12.8763 19.2572 13.2547 19.7301 13.2547H20.5986C21.0714 13.2547 21.4497 12.8763 21.4497 12.4035V12.3948C21.4497 11.922 21.0714 11.5437 20.5986 11.5437H19.7301C19.2572 11.5437 18.8789 11.922 18.8789 12.3948ZM12.0006 7.24472C9.15474 7.24472 6.8419 9.55755 6.8419 12.4035C6.8419 15.2494 9.15474 17.5622 12.0006 17.5622C14.8465 17.5622 17.1594 15.2494 17.1594 12.4035C17.1594 9.55755 14.8465 7.24472 12.0006 7.24472ZM11.992 21.8182H12.0006C12.4735 21.8182 12.8518 21.4398 12.8518 20.967V20.1415C12.8518 19.6687 12.4735 19.2903 12.0006 19.2903H11.992C11.5192 19.2903 11.1409 19.6687 11.1409 20.1415V20.967C11.1409 21.4398 11.5192 21.8182 11.992 21.8182ZM5.33729 19.0582C5.6726 19.3935 6.21427 19.3935 6.54959 19.0582L6.8849 18.7228C7.22022 18.3876 7.21162 17.8459 6.8849 17.5192L6.8763 17.5106C6.54099 17.1753 5.99932 17.1753 5.664 17.5106L5.32869 17.8459C5.00197 18.1898 5.00197 18.7228 5.33729 19.0582Z" fill="white"/>
</svg>
